<?xml version="1.0" encoding="utf-8"?>
<!-- Generator: Adobe Illustrator 18.1.1, SVG Export Plug-In . SVG Version: 6.00 Build 0)  -->
<svg version="1.1" id="Triumph_x5F_The_x5F_Tailoress_x5F_Wordmark_x5F_Crown"
	 xmlns="http://www.w3.org/2000/svg" xmlns:xlink="http://www.w3.org/1999/xlink" x="0px" y="0px" width="130px" height="66.7px"
	 viewBox="0 0 130 66.7" enable-background="new 0 0 130 66.7" xml:space="preserve">
<path fill="#fff" d="M129.5,45c-0.1,0-0.1,0.1-0.2,0.2c-2.2,4.7-4.2,5.5-5.1,5.5c-0.7,0-1.1-0.4-1.1-1.6c0-1.4,0.6-3.3,1.1-5
	c0.7-2.5,1.1-3.8,1.1-4.9c0-1.4-1.1-2.5-2.7-2.5c-2.5,0-4.4,2-6.5,5.2c-0.1,0.1-0.2,0.2-0.2,0.2c0,0-0.1,0-0.1-0.1
	c0-0.1,0.1-0.3,0.1-0.4c0.4-1.7,0.9-3.3,1.3-4.8c5.8-4.9,12.5-11.3,12.5-16.7c0-1.8-0.9-3.3-2.9-3.3c-4.4,0-9.2,6.2-13.2,21.5
	c-1.3,1-2.6,1.9-3.8,2.7c-0.3,0.2-0.6,0.4-0.9,0.6c0-0.1,0-0.2,0-0.3c0-2.2-0.7-4.6-3.3-4.6c-2.2,0-4.5,1.6-6.4,5.2
	c0,0.1-0.1,0.1-0.2,0.1c0,0-0.1,0-0.1-0.1c0,0,0-0.1,0-0.2c0.2-0.7,0.7-2.4,0.7-3.1c0-1.1-1.9-2.1-2.2-2.1c-0.2,0-0.2,0.1-0.3,0.3
	c-0.4,1.5-0.5,2.2-0.9,3.4c-1.8,5.5-4.5,10.2-6.2,10.2c-0.5,0-0.8-0.5-0.8-1.3c0-2.4,2.2-7.9,2.2-10c0-1.4-0.8-2.6-2.8-2.6
	c-1.8,0-4.1,1.6-6.2,5.1c-0.1,0.1-0.1,0.3-0.2,0.3c0,0-0.1,0-0.1-0.1c0-0.1,0-0.2,0.1-0.2c0.1-0.6,0.3-1.4,0.3-2.3
	c0-1.3-0.6-2.7-2.4-2.7c-1.8,0-4.1,1.5-6.2,5c-0.1,0.1-0.2,0.3-0.3,0.3c0,0-0.1,0-0.1-0.1c0-0.1,0-0.2,0-0.3c0.2-0.8,0.7-2.3,0.7-3
	c0-1.1-1.9-2.1-2.2-2.1c-0.2,0-0.2,0.1-0.3,0.3c-1.1,5.1-3.2,13.5-3.2,13.9c0,0.8,2.1,1.5,2.5,1.5c0.3,0,0.3-0.1,0.4-0.4
	c0.8-2.9,1.8-6.7,3.2-9.2c1.3-2.3,2.7-3.9,4.1-3.9c0.5,0,0.8,0.4,0.8,1c0,0.7-0.4,2.2-0.6,3.2c-0.9,3.9-1.8,7.6-1.8,7.8
	c0,0.8,2.1,1.5,2.5,1.5c0.3,0,0.3-0.1,0.4-0.4c0.8-2.9,1.8-6.7,3.2-9.2c1.3-2.3,2.7-3.9,4-3.9c0.4,0,0.8,0.2,0.8,0.9
	c0,2-2,6.3-2,9.5c0,1.8,0.9,3.1,2.7,3.1c2.4,0,4.3-2.3,6.1-6c0,0,0-0.1,0.1-0.1c0,0,0,0,0,0.1c0,0,0,0,0,0.1
	C94.4,49,90.6,65,90.6,65.2c0,0.8,2.1,1.5,2.5,1.5c0.3,0,0.3-0.1,0.4-0.4c3.1-12.1,4.2-18.7,6.4-23c1.5-2.9,2.7-4.5,4.2-4.5
	c0.9,0,1.6,0.8,1.6,2.4c0,0.9-0.1,1.9-0.3,2.8c-1.3,0.8-2.5,1.6-3.5,2.3c-1.9,1.4-3.3,2.8-3.3,4.3c0,1.2,1,1.9,2.1,1.9
	c4.3,0,7.7-4.6,8.3-9.4c1.5-0.9,3-1.9,4.4-2.9c-0.1,0.3-0.2,0.6-0.2,0.9c-1.4,5.8-2.3,9.6-2.3,9.9c0,0.8,2.1,1.5,2.5,1.5
	c0.3,0,0.3-0.1,0.4-0.4c0.8-2.9,1.8-6.4,3.1-8.7c1.3-2.3,2.9-4.4,4.4-4.4c0.6,0,0.9,0.2,0.9,0.9c0,0.9-0.4,2.2-1,4.3
	c-0.6,1.9-1,3.7-1,5.1c0,1.9,1.1,3.3,3,3.3c4,0,7.2-5,7.2-6.7C130,45.4,129.6,45,129.5,45z M126.8,17.9c0.7,0,1.1,0.6,1.1,1.6
	c0,4.6-4.6,10.5-10.2,15.5C121.1,24.2,124.6,17.9,126.8,17.9z M100.4,51.1c-0.5,0-0.7-0.3-0.7-0.8c0-1.4,2.2-3,5.1-4.9
	C103.8,48.6,101.9,51.1,100.4,51.1z M48.1,36.9c0-0.1,0.1-0.2,0.3-0.2c0.4,0,2.4,1.1,2.4,1.9c0,0.4-0.1,0.8-0.4,1.6
	c-0.8,2.5-2.1,7.2-2.1,9.2c0,0.7,0.2,1.2,0.8,1.2c0.9,0,1.9-1.3,2.5-2.2c0.1-0.1,0.1-0.1,0.2-0.1c0.2,0,0.5,0.3,0.5,0.7
	c0,0.7-2,3.5-4.2,3.5c-2,0-2.9-1.2-2.9-3.4C45.1,46.6,47.5,38.7,48.1,36.9 M62.5,42.5c-1.3,3.8-3.9,8.1-5.4,8.1
	c-0.6,0-0.9-0.5-0.9-1.5c0-2.4,1.2-6.4,2-8.8c0.2-0.8,0.4-1.2,0.4-1.6c0-0.8-2-1.9-2.4-1.9c-0.2,0-0.2,0.1-0.3,0.2
	c-0.6,1.8-2.8,8.7-2.8,11.7c0,2.3,0.9,3.8,2.7,3.8c2.2,0,4.3-2.2,5.5-4.6c0-0.1,0-0.1,0.1-0.1c0,0,0,0,0,0.1c0,0.1-0.1,0.7-0.1,1.2
	c0,2.2,0.9,3.4,2.9,3.4c2.2,0,4.2-2.8,4.2-3.5c0-0.3-0.3-0.7-0.5-0.7c-0.1,0-0.1,0-0.2,0.1c-0.6,0.9-1.7,2.2-2.5,2.2
	c-0.5,0-0.8-0.5-0.8-1.2c0-2,1.3-6.7,2.1-9.2c0.3-0.8,0.4-1.2,0.4-1.6c0-0.8-2-1.9-2.4-1.9c-0.2,0-0.2,0.1-0.3,0.2
	C63.9,37.8,63,40.9,62.5,42.5 M51.3,33.7c1,0,1.7-0.8,1.7-1.7c0-1-0.8-1.7-1.7-1.7c-1,0-1.7,0.8-1.7,1.7
	C49.6,32.9,50.3,33.7,51.3,33.7 M59.6,21.5c-8,0-18,2.5-27.6,5.1c-0.8-4.9-4.7-8.4-12.2-8.4C9.6,18.1,0,24,0,29.1
	c0,3.4,4,4.8,8.6,4.8c5,0,12.2-1.8,20.3-3.9c-1.3,7.4-4.7,20.5-4.7,21c0,0.7,2.5,1.5,3,1.5c0.2,0,0.3,0,0.3-0.3
	c1.1-4.9,4.4-17.4,4.7-23.1c10.5-2.7,21.9-5.7,31.1-5.7c6.8,0,7.8,2.4,7.8,3.6c0,0.9-0.7,1.1-0.7,1.4c0,0.2,0.2,0.3,0.4,0.3
	c0.9,0,2.8-0.8,2.8-2.2C73.5,24.5,70.2,21.5,59.6,21.5z M29.3,27.3c-9,2.4-17.4,4.7-23,4.7c-3.2,0-5-1.1-5-2.8
	c0-4.4,11.5-9.8,19.4-9.8c6.3,0,8.7,2.5,8.7,6.6C29.3,26.4,29.3,26.8,29.3,27.3z M32.2,50.9c0,0.8,2.1,1.5,2.5,1.5
	c0.3,0,0.3-0.1,0.4-0.4c0.8-2.9,1.6-6.6,3-8.9c1.6-2.8,3-3.8,4.2-3.8c0.9,0,1.2,0.6,1.2,1.4c0,0.6-0.1,0.9-0.1,1.1
	c0,0.2,0.1,0.2,0.3,0.2c0.7,0,2-2.1,2-3.7c0-1.1-0.8-1.7-1.9-1.7c-1.8,0-4.2,1.7-6.2,5.3c0,0.1-0.1,0.1-0.2,0.1
	c-0.1,0-0.1,0-0.1-0.1c0-0.1,0-0.2,0-0.2c0.2-0.8,0.7-2.3,0.7-3c0-1.1-1.9-2.1-2.2-2.1c-0.2,0-0.2,0.1-0.3,0.3
	C34.3,42.1,32.2,50.5,32.2,50.9 M98.6,23l4.1,2.6l5.5-11.4l-8.7,9.2l-0.1,0l0.6-18l-5,17.5H95L90,5.4l0.6,18l-0.1,0l-8.7-9.2
	l5.5,11.4l4.1-2.6H98.6z M98.4,27.1l2.5,1.6l1.2-0.8l0.4-1.5l-4.1-2.6H95h-3.4l-4.1,2.6l0.4,1.5l1.2,0.8l2.5-1.6H95H98.4z
	 M80.6,11.9l0.7-0.8l-0.3-1l-1-0.2l-0.7,0.8l0.3,1L80.6,11.9z M89.2,2L90,1.2l-0.3-1l-1-0.2l-0.7,0.8l0.3,1L89.2,2z M110.4,11.6
	l0.3-1L110,9.8l-1,0.2l-0.3,1l0.7,0.8L110.4,11.6z M101.8,1.8l0.3-1L101.4,0l-1,0.2l-0.3,1l0.7,0.8L101.8,1.8z"/>
</svg>
