<svg xmlns="http://www.w3.org/2000/svg" width="58" height="22"><rect id="backgroundrect" width="100%" height="100%" x="0" y="0" fill="none" stroke="none" class="" style=""/><defs><style>.cls-1{fill:#494e53;}</style></defs><title>Black</title>
<g class="currentLayer"><title>Layer 1</title><rect class="cls-1" x="0" y="0" width="1" height="21.780000686645508" id="svg_1"/><rect class="cls-1" x="2.8000001907348633" y="0" width="1" height="12.8100004196167" id="svg_2"/><rect class="cls-1" x="5.59999942779541" y="0" width="1" height="12.8100004196167" id="svg_3"/><rect xmlns="http://www.w3.org/2000/svg" class="cls-1" x="8.399999618530273" y="0" width="1" height="12.8100004196167" id="svg_4"/><rect class="cls-1" x="11.200000762939453" y="0" width="1" height="12.8100004196167" id="svg_5"/><rect class="cls-1" x="13.979999542236328" y="0" width="1" height="21.780000686645508" id="svg_6"/><rect class="cls-1" x="16.770000457763672" y="0" width="1" height="12.8100004196167" id="svg_7"/><rect class="cls-1" x="19.579999923706055" y="0" width="1" height="12.8100004196167" id="svg_8"/><rect class="cls-1" x="22.399999618530273" y="0" width="1" height="12.8100004196167" id="svg_9"/><rect class="cls-1" x="25.229999542236328" y="0.01999950408935547" width="1" height="12.8100004196167" id="svg_10"/><rect class="cls-1" x="28.020000457763672" y="0.01999950408935547" width="1" height="21.780000686645508" id="svg_11"/><rect xmlns="http://www.w3.org/2000/svg" class="cls-1" x="30.829998016357422" y="0.01999950408935547" width="1" height="12.8100004196167" id="svg_12"/><rect xmlns="http://www.w3.org/2000/svg" class="cls-1" x="33.650001525878906" y="0.01999950408935547" width="1" height="12.8100004196167" id="svg_13"/><rect xmlns="http://www.w3.org/2000/svg" class="cls-1" x="36.470001220703125" y="0.01999950408935547" width="1" height="12.8100004196167" id="svg_14"/><rect xmlns="http://www.w3.org/2000/svg" class="cls-1" x="39.290000915527344" y="0.01999950408935547" width="1" height="12.8100004196167" id="svg_15"/><rect xmlns="http://www.w3.org/2000/svg" class="cls-1" x="42.11000061035156" y="0.01999950408935547" width="1" height="21.780000686645508" id="svg_16"/><rect xmlns="http://www.w3.org/2000/svg" class="cls-1" x="44.93000030517578" y="0.01999950408935547" width="1" height="12.8100004196167" id="svg_17"/><rect xmlns="http://www.w3.org/2000/svg" class="cls-1" x="47.75" y="0.01999950408935547" width="1" height="12.8100004196167" id="svg_18"/><rect xmlns="http://www.w3.org/2000/svg" class="cls-1" x="50.56999969482422" y="0.01999950408935547" width="1" height="12.8100004196167" id="svg_19"/><rect xmlns="http://www.w3.org/2000/svg" class="cls-1" x="53.38999938964844" y="0.01999950408935547" width="1" height="12.8100004196167" id="svg_20"/><rect xmlns="http://www.w3.org/2000/svg" class="cls-1" x="56.21000289916992" y="0.01999950408935547" width="1" height="21.780000686645508" id="svg_21"/></g></svg>